<svg xmlns="http://www.w3.org/2000/svg" width="20" height="19.998" viewBox="0 0 20 19.998">
  <path id="_6c4276d22efc332a568d965589cf01fb" data-name="6c4276d22efc332a568d965589cf01fb" d="M20.31,11a3.338,3.338,0,0,1,.3-1.04A2.935,2.935,0,0,0,20.9,7.9a3.189,3.189,0,0,0-1.52-1.527,3.509,3.509,0,0,1-.86-.64,3.141,3.141,0,0,1-.38-.987A3.1,3.1,0,0,0,17.111,2.9,3.331,3.331,0,0,0,15,2.54a3.557,3.557,0,0,1-1.127-.053,3.317,3.317,0,0,1-.893-.567A3.286,3.286,0,0,0,11,1a3.29,3.29,0,0,0-1.98.92,3.317,3.317,0,0,1-.893.567A3.557,3.557,0,0,1,7,2.54a3.331,3.331,0,0,0-2.113.36A3.1,3.1,0,0,0,3.853,4.746a3.141,3.141,0,0,1-.38.987,3.591,3.591,0,0,1-.853.64A3.175,3.175,0,0,0,1.093,7.9a2.935,2.935,0,0,0,.293,2.06,3.338,3.338,0,0,1,.3,1.04,3.338,3.338,0,0,1-.3,1.04,2.935,2.935,0,0,0-.293,2.06,3.189,3.189,0,0,0,1.52,1.527,3.509,3.509,0,0,1,.86.64,3.141,3.141,0,0,1,.38.987A3.1,3.1,0,0,0,4.886,19.1,3.331,3.331,0,0,0,7,19.458a3.557,3.557,0,0,1,1.127.053,3.317,3.317,0,0,1,.893.567A3.29,3.29,0,0,0,11,21a3.29,3.29,0,0,0,1.98-.92,3.317,3.317,0,0,1,.893-.567A3.557,3.557,0,0,1,15,19.458a3.331,3.331,0,0,0,2.113-.36,3.1,3.1,0,0,0,1.033-1.846,3.142,3.142,0,0,1,.38-.987,3.591,3.591,0,0,1,.853-.64A3.175,3.175,0,0,0,20.9,14.1a2.935,2.935,0,0,0-.293-2.06A3.323,3.323,0,0,1,20.31,11ZM8.332,13a.672.672,0,0,1-.473.64.644.644,0,0,1-.193.027.656.656,0,0,1-.553-.3L5.666,11.2V13a.667.667,0,0,1-1.333,0V9a.672.672,0,0,1,.473-.64.661.661,0,0,1,.747.273L7,10.8V9A.667.667,0,0,1,8.332,9Zm3.333-2.666a.667.667,0,1,1,0,1.333H10.332v.667h1.333a.667.667,0,1,1,0,1.333h-2A.669.669,0,0,1,9,13V9a.669.669,0,0,1,.667-.667h2a.667.667,0,1,1,0,1.333H10.332v.667Zm5.325,2.773a.679.679,0,0,1-.593.56h-.067a.678.678,0,0,1-.627-.433l-.373-1-.373,1a.668.668,0,0,1-1.287-.127l-.667-4a.668.668,0,1,1,1.32-.213l.253,1.547.127-.34a.67.67,0,0,1,1.253,0l.127.34.253-1.547a.668.668,0,1,1,1.32.213Z" transform="translate(-0.999 -1)" fill="#fff"/>
</svg>
