<svg xmlns="http://www.w3.org/2000/svg" width="36" height="36" viewBox="0 0 36 36">
  <path id="a29b6bb9e4478392bab5ed536c0360ca" d="M20,2a1.016,1.016,0,0,0-.669.246,5.056,5.056,0,0,0-.525.411c-.365.321-.777.729-1.183,1.137s-.806.813-1.13,1.117q-.2.188-.409.359A.524.524,0,0,1,16,5.32a.329.329,0,0,1-.084-.005Q15.656,5.27,15.4,5.2c-.42-.1-.96-.261-1.5-.414q-.768-.226-1.549-.4a4.824,4.824,0,0,0-.651-.1.99.99,0,0,0-.7.123,1.007,1.007,0,0,0-.454.545,5.009,5.009,0,0,0-.252.62c-.157.462-.306,1.02-.454,1.575s-.294,1.108-.422,1.534q-.076.261-.174.514a.64.64,0,0,1-.045.086.572.572,0,0,1-.076.04c-.118.046-.3.1-.505.163-.417.12-.958.255-1.5.392s-1.09.278-1.543.427a4.864,4.864,0,0,0-.613.238A.981.981,0,0,0,4.411,11a1.022,1.022,0,0,0-.123.7,5.019,5.019,0,0,0,.1.662c.094.478.242,1.035.391,1.59s.3,1.106.4,1.539c.051.216.09.4.108.532a.627.627,0,0,1,0,.1.354.354,0,0,1-.046.073q-.168.2-.354.395c-.3.312-.7.7-1.107,1.089s-.807.788-1.125,1.143a4.8,4.8,0,0,0-.411.512,1.035,1.035,0,0,0,0,1.336,4.819,4.819,0,0,0,.414.527c.32.366.725.775,1.131,1.182s.816.806,1.121,1.13c.152.161.278.3.359.409a.585.585,0,0,1,.05.08.426.426,0,0,1,0,.089q-.044.261-.111.517c-.1.42-.261.958-.414,1.5s-.3,1.085-.4,1.552a4.781,4.781,0,0,0-.1.648,1,1,0,0,0,.123.7,1.013,1.013,0,0,0,.545.456,4.969,4.969,0,0,0,.62.249c.46.157,1.016.309,1.572.456s1.108.292,1.534.419c.213.064.4.125.518.174a.514.514,0,0,1,.082.045.5.5,0,0,1,.04.076c.046.118.1.3.163.505.121.417.255.958.392,1.5s.279,1.093.427,1.547a4.95,4.95,0,0,0,.238.612.987.987,0,0,0,.458.545,1.025,1.025,0,0,0,.7.121,5.226,5.226,0,0,0,.661-.094c.476-.1,1.034-.242,1.589-.391s1.106-.3,1.539-.4c.216-.05.4-.087.535-.105a.7.7,0,0,1,.1,0,.331.331,0,0,1,.068.044c.1.08.235.206.392.356.312.3.7.7,1.093,1.106s.787.806,1.142,1.124a4.72,4.72,0,0,0,.512.411A.982.982,0,0,0,20,38h0a1,1,0,0,0,.669-.244,5.018,5.018,0,0,0,.525-.411c.365-.321.777-.728,1.183-1.135s.806-.813,1.13-1.117c.161-.152.3-.278.409-.359A.566.566,0,0,1,24,34.68a.329.329,0,0,1,.084.005c.125.019.306.058.517.111.42.1.96.257,1.5.411s1.083.306,1.549.405a4.848,4.848,0,0,0,.651.1.986.986,0,0,0,.7-.121,1.007,1.007,0,0,0,.454-.545,5.005,5.005,0,0,0,.252-.622c.157-.462.306-1.016.454-1.572s.294-1.11.422-1.534c.064-.213.125-.393.174-.514a.146.146,0,0,1,.12-.126c.12-.046.3-.1.507-.163.417-.12.958-.255,1.5-.392s1.09-.279,1.543-.427a4.893,4.893,0,0,0,.613-.238A.987.987,0,0,0,35.589,29a1.015,1.015,0,0,0,.123-.7,5.067,5.067,0,0,0-.1-.663q-.17-.8-.391-1.589c-.15-.555-.3-1.106-.4-1.539q-.065-.264-.108-.532a.624.624,0,0,1,0-.1.392.392,0,0,1,.046-.073q.168-.2.354-.395c.3-.312.7-.7,1.107-1.093s.807-.787,1.125-1.142a4.72,4.72,0,0,0,.411-.512A.983.983,0,0,0,38,20a1,1,0,0,0-.244-.666,5.045,5.045,0,0,0-.414-.527c-.32-.365-.725-.774-1.131-1.18s-.816-.809-1.121-1.131q-.188-.2-.359-.408a.585.585,0,0,1-.05-.08.426.426,0,0,1,0-.089c.019-.126.058-.306.111-.517.1-.42.261-.958.414-1.5s.3-1.085.4-1.552a4.821,4.821,0,0,0,.1-.651,1.033,1.033,0,0,0-.669-1.155,4.951,4.951,0,0,0-.62-.249c-.46-.157-1.016-.309-1.572-.456s-1.108-.292-1.534-.419q-.262-.077-.518-.174a.812.812,0,0,1-.085-.045.534.534,0,0,1-.039-.073q-.091-.249-.162-.505c-.121-.417-.255-.96-.392-1.506q-.188-.779-.427-1.545a4.806,4.806,0,0,0-.238-.612A.987.987,0,0,0,29,4.413a1.029,1.029,0,0,0-.7-.123,5.226,5.226,0,0,0-.661.094c-.476.1-1.034.242-1.589.391s-1.106.3-1.539.405q-.265.064-.535.105a.719.719,0,0,1-.1.005.409.409,0,0,1-.071-.046q-.2-.169-.392-.354c-.312-.3-.7-.7-1.093-1.107q-.552-.58-1.142-1.122a4.851,4.851,0,0,0-.512-.411A.982.982,0,0,0,20,2h0V2Zm0,1.35c.085.063.192.145.324.265.306.274.692.663,1.08,1.062s.779.807,1.122,1.138c.171.165.328.31.48.432a1.236,1.236,0,0,0,.535.3,1.363,1.363,0,0,0,.617.013c.2-.028.411-.075.648-.131.473-.111,1.031-.264,1.58-.411s1.09-.292,1.5-.374a4.034,4.034,0,0,1,.437-.064,3.773,3.773,0,0,1,.148.388c.129.39.265.922.4,1.462s.273,1.089.405,1.547c.066.229.13.433.2.615a1.226,1.226,0,0,0,.311.53,1.255,1.255,0,0,0,.53.316c.184.073.393.141.626.212.465.14,1.025.285,1.574.431s1.09.3,1.49.432c.176.06.309.116.409.161a3.856,3.856,0,0,1-.064.411q-.169.739-.383,1.466c-.152.535-.309,1.08-.424,1.542-.057.231-.1.44-.132.633a1.224,1.224,0,0,0,.005.615,1.275,1.275,0,0,0,.3.54c.122.156.267.318.435.5.333.354.744.759,1.147,1.16s.8.8,1.075,1.12a4.147,4.147,0,0,1,.274.345,3.335,3.335,0,0,1-.261.324c-.274.3-.663.689-1.062,1.077s-.81.779-1.14,1.122q-.227.231-.432.482a1.236,1.236,0,0,0-.3.535,1.27,1.27,0,0,0-.008.617c.028.2.073.409.129.645.111.473.266,1.031.414,1.58s.289,1.093.372,1.507a3.96,3.96,0,0,1,.064.435,3.419,3.419,0,0,1-.388.15c-.39.127-.919.265-1.459.4s-1.089.27-1.547.4q-.312.086-.615.2a1.233,1.233,0,0,0-.532.311,1.285,1.285,0,0,0-.315.532q-.12.307-.213.624c-.14.464-.285,1.025-.431,1.574s-.294,1.093-.429,1.491a4.024,4.024,0,0,1-.163.41c-.1-.013-.237-.028-.41-.066q-.739-.168-1.466-.382c-.536-.152-1.077-.309-1.54-.424q-.314-.08-.635-.132a1.212,1.212,0,0,0-1.152.3q-.258.206-.5.435c-.354.332-.759.744-1.16,1.147s-.8.8-1.119,1.075a4.351,4.351,0,0,1-.346.274,4.01,4.01,0,0,1-.321-.264q-.557-.514-1.08-1.062c-.388-.4-.779-.807-1.122-1.138q-.23-.227-.48-.432a1.238,1.238,0,0,0-.535-.306,1.2,1.2,0,0,0-.617,0c-.2.028-.411.072-.648.129-.473.111-1.031.264-1.58.411s-1.09.289-1.5.372q-.217.045-.437.068a3.88,3.88,0,0,1-.148-.39c-.129-.39-.265-.919-.4-1.459s-.273-1.089-.4-1.547q-.087-.312-.2-.615a1.237,1.237,0,0,0-.311-.531,1.3,1.3,0,0,0-.53-.316q-.308-.119-.626-.211c-.465-.14-1.025-.285-1.574-.432s-1.09-.3-1.49-.432a4.19,4.19,0,0,1-.409-.161,3.921,3.921,0,0,1,.064-.411c.085-.4.231-.928.383-1.464s.309-1.08.424-1.542c.057-.231.1-.441.132-.633a1.229,1.229,0,0,0-.005-.616,1.284,1.284,0,0,0-.3-.54q-.206-.256-.435-.494c-.333-.355-.744-.759-1.147-1.161s-.8-.8-1.075-1.119a4.067,4.067,0,0,1-.274-.345,3.334,3.334,0,0,1,.261-.324c.274-.306.663-.689,1.062-1.077s.81-.779,1.14-1.122c.165-.172.31-.33.432-.482a1.236,1.236,0,0,0,.3-.535,1.269,1.269,0,0,0,.008-.617q-.05-.326-.129-.647c-.111-.472-.266-1.029-.414-1.579q-.209-.748-.372-1.507a4.1,4.1,0,0,1-.064-.435,3.418,3.418,0,0,1,.388-.15c.39-.127.919-.266,1.459-.4s1.089-.27,1.547-.4q.312-.086.615-.2a1.233,1.233,0,0,0,.532-.311,1.281,1.281,0,0,0,.315-.534c.073-.183.143-.39.213-.622.14-.465.285-1.025.431-1.575S11.374,6.4,11.509,6a4.106,4.106,0,0,1,.163-.409c.1.013.237.028.41.064.4.086.931.231,1.466.383s1.077.309,1.54.424c.231.057.442.1.635.132a1.212,1.212,0,0,0,1.152-.3q.258-.206.5-.435c.354-.333.759-.746,1.16-1.148s.8-.8,1.119-1.075a3.672,3.672,0,0,1,.343-.273Zm.257,5.8A10.854,10.854,0,1,0,29.4,25.427a.643.643,0,1,0-1.113-.643,9.565,9.565,0,1,1,.958-7.258.643.643,0,1,0,1.239-.334A10.863,10.863,0,0,0,20.251,9.15Zm6.164,7.284v0a.643.643,0,0,0-.351.087l-9.685,5.529-2.213-3.789a.643.643,0,1,0-1.11.648l2.533,4.339a.643.643,0,0,0,.874.234L26.7,17.637a.643.643,0,0,0-.287-1.2Zm3.624,5.032a.321.321,0,0,0-.3.269,9.907,9.907,0,0,1-.279,1.155.322.322,0,0,0,.616.186,10.342,10.342,0,0,0,.3-1.228.321.321,0,0,0-.328-.382Z" transform="translate(-2 -2)" fill="#08488c"/>
</svg>
