<svg xmlns="http://www.w3.org/2000/svg" width="18.544" height="17" viewBox="0 0 18.544 17">
  <path id="ac1d763ecd9686540fe1af62c1755b89" d="M12.038,11.272a2.318,2.318,0,0,1,2.318,2.318v1.157C14.514,17.585,12.328,19,8.274,19S2,17.6,2,14.787v-1.2a2.318,2.318,0,0,1,2.318-2.318Zm6.182,0a2.318,2.318,0,0,1,2.318,2.318V14.4c.14,2.546-1.792,3.822-5.322,3.822a12.28,12.28,0,0,1-1.351-.07,4.05,4.05,0,0,0,1.272-3.119l-.01-.334,0-1.113a3.083,3.083,0,0,0-1.047-2.319ZM8.181,2A3.864,3.864,0,1,1,4.317,5.864,3.864,3.864,0,0,1,8.181,2Zm7.727,1.545a3.091,3.091,0,1,1-3.091,3.091A3.091,3.091,0,0,1,15.908,3.545Z" transform="translate(-2 -2)" fill="#08488c"/>
</svg>
