<svg id="Artboard" xmlns="http://www.w3.org/2000/svg" width="18" height="18" viewBox="0 0 18 18">
  <g id="users" transform="translate(0 0)">
    <path id="Shape" d="M42.468,11.909h-1.89a.45.45,0,1,1,0-.9h1.89a6.921,6.921,0,0,0,1.35-.18,4.35,4.35,0,0,0,.63-.27.641.641,0,0,0,.27-.54,1.278,1.278,0,0,0-.18-.54,5.151,5.151,0,0,0-2.34-1.26c-.09,0-.09-.09-.18-.09a1.4,1.4,0,0,1-.54-.72.945.945,0,0,1,.45-.81,3.72,3.72,0,0,0,.9-2.43,1.671,1.671,0,0,0-.63-1.08,1.754,1.754,0,0,0-2.07,0,1.672,1.672,0,0,0-.63,1.08,3.72,3.72,0,0,0,.9,2.43.45.45,0,0,1-.72.54,3.878,3.878,0,0,1-1.08-3.15,2.389,2.389,0,0,1,.99-1.62,2.567,2.567,0,0,1,3.15,0,2.6,2.6,0,0,1,.99,1.62,4.62,4.62,0,0,1-1.08,3.15c-.09.09-.09.18-.18.18a.088.088,0,0,1,.09.09,5.581,5.581,0,0,1,2.61,1.53,1.711,1.711,0,0,1,.45,1.17,1.575,1.575,0,0,1-.63,1.26,2.808,2.808,0,0,1-.9.45C43.548,11.819,43.007,11.909,42.468,11.909Z" transform="translate(-27.617 -1.739)" fill="#08488c" fill-rule="evenodd"/>
    <path id="Shape-2" data-name="Shape" d="M6.564,11.694H4.674a4.363,4.363,0,0,1-1.62-.27,2.817,2.817,0,0,1-.9-.45,1.719,1.719,0,0,1-.63-1.26,1.9,1.9,0,0,1,.45-1.17,6.386,6.386,0,0,1,2.7-1.44.088.088,0,0,0,.09-.09.313.313,0,0,1-.09-.18A4.085,4.085,0,0,1,3.5,3.685a2.387,2.387,0,0,1,.99-1.62,2.567,2.567,0,0,1,3.15,0,2.6,2.6,0,0,1,.99,1.62,4.62,4.62,0,0,1-1.08,3.15.554.554,0,0,1-.63.09c-.18-.18-.27-.45-.09-.63a3.411,3.411,0,0,0,.9-2.43,1.373,1.373,0,0,0-.63-1.08,1.757,1.757,0,0,0-2.07,0,1.364,1.364,0,0,0-.63.99A3.717,3.717,0,0,0,5.3,6.2c.18.27.45.54.36.81,0,.36-.27.54-.54.72a.313.313,0,0,1-.18.09,7.419,7.419,0,0,0-2.25,1.35,1.279,1.279,0,0,0-.18.54.545.545,0,0,0,.27.54,4.4,4.4,0,0,0,.63.27,2.873,2.873,0,0,0,1.26.27h1.89a.45.45,0,1,1,0,.9Z" transform="translate(-1.524 -1.524)" fill="#08488c" fill-rule="evenodd"/>
    <path id="Shape-3" data-name="Shape" d="M19.93,30.745H16.24a5.449,5.449,0,0,1-2.16-.36,3.12,3.12,0,0,1-1.08-.63,1.668,1.668,0,0,1-.81-1.53,2.206,2.206,0,0,1,.54-1.44,8,8,0,0,1,3.51-1.98l.27-.27-.27-.27c-1.17-1.53-1.71-2.88-1.53-4.14a3.367,3.367,0,0,1,1.26-2.07,3.679,3.679,0,0,1,4.05,0,3.01,3.01,0,0,1,1.26,2.07,5.823,5.823,0,0,1-1.44,4.14c-.27.27-.27.36-.27.36a1.289,1.289,0,0,1,.27.18,8,8,0,0,1,3.51,1.98,2.044,2.044,0,0,1,.54,1.44,2.108,2.108,0,0,1-.72,1.62,3.114,3.114,0,0,1-1.08.63A8.869,8.869,0,0,1,19.93,30.745Zm-1.89-12.51a3.035,3.035,0,0,0-1.53.45,2.1,2.1,0,0,0-.9,1.53,5.384,5.384,0,0,0,1.26,3.42c.27.27.54.54.45.99,0,.36-.36.63-.63.9a.314.314,0,0,1-.18.09,7.3,7.3,0,0,0-3.24,1.8,2.149,2.149,0,0,0-.18.81,1.107,1.107,0,0,0,.45.9,2.106,2.106,0,0,0,.9.45,5.8,5.8,0,0,0,1.8.27h3.69a5.8,5.8,0,0,0,1.8-.27,2.8,2.8,0,0,0,.9-.45,1.107,1.107,0,0,0,.45-.9.977.977,0,0,0-.36-.81,7.663,7.663,0,0,0-3.24-1.8c-.09,0-.09-.09-.18-.09-.27-.27-.63-.54-.63-.9a1.564,1.564,0,0,1,.54-.99,5.219,5.219,0,0,0,1.26-3.42,2.28,2.28,0,0,0-.9-1.53A3.032,3.032,0,0,0,18.04,18.235Z" transform="translate(-9.04 -12.745)" fill="#08488c" fill-rule="evenodd"/>
  </g>
</svg>
