<svg xmlns="http://www.w3.org/2000/svg" width="18.5" height="18.5" viewBox="0 0 18.5 18.5">
  <path id="c57df397097bd73a16454e5761c556ff" d="M15.031,0H3.469A3.469,3.469,0,0,0,0,3.469V15.031A3.469,3.469,0,0,0,3.469,18.5H15.031A3.469,3.469,0,0,0,18.5,15.031V3.469A3.469,3.469,0,0,0,15.031,0Zm1.156,15.031a1.155,1.155,0,0,1-1.156,1.156H3.469a1.156,1.156,0,0,1-1.156-1.156V3.469A1.157,1.157,0,0,1,3.469,2.313H15.031a1.156,1.156,0,0,1,1.156,1.156ZM12.093,5.978,8.006,10.065,6.37,8.43a1.156,1.156,0,0,0-1.635,1.635l2.454,2.452a1.155,1.155,0,0,0,1.635,0l4.9-4.9c.452-.452,0-1.635,0-1.635s-1.183-.452-1.635,0Z" fill="#08488c"/>
</svg>
