<svg id="ic_Dashboard" xmlns="http://www.w3.org/2000/svg" width="20" height="20" viewBox="0 0 20 20">
  <path id="Shape" d="M16,20H15a4,4,0,0,1-4-4V13a4,4,0,0,1,4-4h1a4,4,0,0,1,4,4v3A4,4,0,0,1,16,20Zm-1-9a2,2,0,0,0-2,2v3a2,2,0,0,0,2,2h1a2,2,0,0,0,2-2V13a2,2,0,0,0-2-2ZM5,20H4a4,4,0,0,1-4-4V14a4,4,0,0,1,4-4H5a4,4,0,0,1,4,4v2A4,4,0,0,1,5,20ZM4,12a2,2,0,0,0-2,2v2a2,2,0,0,0,2,2H5a2,2,0,0,0,2-2V14a2,2,0,0,0-2-2ZM3.5,8A3.5,3.5,0,0,1,0,4.5v-1a3.5,3.5,0,1,1,7,0v1A3.5,3.5,0,0,1,3.5,8Zm0-6A1.5,1.5,0,0,0,2,3.5v1a1.5,1.5,0,0,0,3,0v-1A1.5,1.5,0,0,0,3.5,2Zm13,5h-4a3.5,3.5,0,1,1,0-7h4a3.5,3.5,0,0,1,0,7Zm-4-5a1.5,1.5,0,1,0,0,3h4a1.5,1.5,0,0,0,0-3Z" fill="#fff"/>
</svg>
