<svg xmlns="http://www.w3.org/2000/svg" width="16" height="16.001" viewBox="0 0 16 16.001">
  <g id="_17e1700d72361ff2dfb7eb2f47665e93" data-name="17e1700d72361ff2dfb7eb2f47665e93" transform="translate(-0.5 -0.497)">
    <path id="Path_5" data-name="Path 5" d="M19.058.726a.769.769,0,0,0-1.094,0L12.086,6.6a.777.777,0,0,0-.2.325l-.96,3.205a.772.772,0,0,0,.2.769.761.761,0,0,0,.547.227.823.823,0,0,0,.222-.031l3.205-.96a.776.776,0,0,0,.325-.2L21.3,4.065a.773.773,0,0,0,0-1.094Z" transform="translate(-5.031)" fill="#08488c"/>
    <path id="Path_6" data-name="Path 6" d="M15.726,7.726a.774.774,0,0,0-.774.774v5.161a1.292,1.292,0,0,1-1.29,1.29H3.339a1.292,1.292,0,0,1-1.29-1.29V3.339a1.292,1.292,0,0,1,1.29-1.29H8.5A.774.774,0,1,0,8.5.5H3.339A2.842,2.842,0,0,0,.5,3.339V13.661A2.842,2.842,0,0,0,3.339,16.5H13.661A2.842,2.842,0,0,0,16.5,13.661V8.5A.774.774,0,0,0,15.726,7.726Z" transform="translate(0 -0.001)" fill="#08488c"/>
  </g>
</svg>
