<svg id="Frame_47809" data-name="Frame 47809" xmlns="http://www.w3.org/2000/svg" width="44" height="44" viewBox="0 0 44 44">
  <rect id="Frame_47809-2" data-name="Frame 47809" width="44" height="44" rx="12" fill="none"/>
  <g id="vuesax_outline_headphone" data-name="vuesax/outline/headphone" transform="translate(10 10)">
    <rect id="vuesax_outline_headphone-2" data-name="vuesax/outline/headphone" width="24" height="24" fill="none"/>
    <g id="vuesax_outline_headphone-3" data-name="vuesax/outline/headphone">
      <g id="headphone">
        <path id="Vector" d="M4.322,21.4A4.38,4.38,0,0,1,0,17.08V10.92A10.657,10.657,0,0,1,10.7,0,10.812,10.812,0,0,1,21.5,10.8v6.16a4.328,4.328,0,0,1-4.32,4.32,4.38,4.38,0,0,1-4.32-4.32V14.15a2.59,2.59,0,0,1,5.18,0v3.03a.75.75,0,0,1-1.5,0V14.15a1.09,1.09,0,0,0-2.18,0v2.81a2.82,2.82,0,0,0,5.64,0V10.8a9.308,9.308,0,0,0-9.3-9.3,9.155,9.155,0,0,0-9.2,9.4v6.18a2.856,2.856,0,0,0,2.82,2.82,2.856,2.856,0,0,0,2.82-2.82V14.27a1.09,1.09,0,1,0-2.18,0v2.92a.75.75,0,1,1-1.5,0V14.27a2.59,2.59,0,1,1,5.18,0v2.81A4.38,4.38,0,0,1,4.322,21.4Z" transform="translate(1.248 1.3)" fill="#fff"/>
        <path id="Vector-2" data-name="Vector" d="M0,0H24V24H0Z" fill="none"/>
      </g>
    </g>
  </g>
</svg>
